Coordinates
version=1
nRows=30
nColumns=30
inDegrees=yes

Units are S.I. units (second, meters, Newtons, ...)
Angles are in degrees.

endheader
time	floatyaw	floatroll	floatpitch	floatx	floaty	floatz	pro_sup_l	deviation_l	flexion_l	cmc_flexion_l	cmc_abduction_l	mp_flexion_l	ip_flexion_l	2mcp_flexion_l	2mcp_abduction_l	2pm_flexion_l	2md_flexion_l	3mcp_flexion_l	3mcp_abduction_l	3pm_flexion_l	3md_flexion_l	4mcp_flexion_l	4mcp_abduction_l	4pm_flexion_l	4md_flexion_l	5mcp_flexion_l	5mcp_abduction_l	5pm_flexion_l	5md_flexion_l
-0.495000	0.866899	-3.180214	97.472630	-0.106469	-0.189870	-0.033401	88.005074	0.527940	-2.489489	17.871235	1.031034	-21.927285	-34.960427	36.598698	8.429971	47.281243	33.398572	22.448448	4.853343	46.230465	31.778427	12.870604	-4.744747	59.920025	41.313599	8.981500	-8.788585	59.028295	41.317217
-0.485000	0.866899	-3.180214	97.472630	-0.106476	-0.189865	-0.033409	88.002430	0.536143	-2.497056	17.864374	1.005365	-21.928386	-34.963359	36.625894	8.410624	47.297890	33.400152	22.470740	4.848193	46.257536	31.779321	12.886027	-4.739982	59.923803	41.307539	9.010866	-8.779286	59.017468	41.300410
-0.475000	0.866899	-3.180214	97.472630	-0.106484	-0.189859	-0.033418	88.003158	0.546465	-2.503523	17.854387	0.980109	-21.928603	-34.964341	36.651316	8.386578	47.313770	33.400787	22.490286	4.844856	46.281764	31.779038	12.898663	-4.736765	59.930501	41.301759	9.033393	-8.765139	59.008866	41.285200
-0.465000	0.866899	-3.180214	97.472630	-0.106494	-0.189852	-0.033427	88.008243	0.559442	-2.509601	17.841596	0.955775	-21.928281	-34.963510	36.671020	8.360902	47.326402	33.399494	22.507644	4.843591	46.300258	31.777258	12.914336	-4.737725	59.937513	41.295198	9.040492	-8.740117	59.004871	41.274331
-0.455000	0.866899	-3.180214	97.472630	-0.106506	-0.189843	-0.033435	88.016574	0.574358	-2.515298	17.827041	0.932698	-21.927635	-34.961003	36.682434	8.336991	47.334556	33.395924	22.522533	4.844389	46.313606	31.774683	12.938226	-4.744189	59.942015	41.286752	9.029208	-8.702560	59.005980	41.268633
-0.445000	0.866899	-3.180214	97.472630	-0.106519	-0.189834	-0.033443	88.024996	0.589346	-2.519870	17.811973	0.910770	-21.926593	-34.956833	36.685109	8.317205	47.338098	33.390240	22.533946	4.846832	46.324996	31.772495	12.971310	-4.755105	59.942265	41.275809	9.003930	-8.656625	59.010046	41.266554
-0.435000	0.866899	-3.180214	97.472630	-0.106534	-0.189823	-0.033450	88.029803	0.602281	-2.522496	17.797137	0.889318	-21.924767	-34.950862	36.680865	8.302052	47.337360	33.382805	22.541178	4.850112	46.337764	31.771549	13.009414	-4.767213	59.938283	41.262549	8.974043	-8.610526	59.012865	41.264985
-0.425000	0.866899	-3.180214	97.472630	-0.106552	-0.189811	-0.033455	88.028746	0.611907	-2.523150	17.782362	0.867499	-21.921642	-34.942916	36.673265	8.290268	47.332789	33.374030	22.544862	4.853324	46.353165	31.771993	13.045751	-4.776504	59.931779	41.247853	8.949263	-8.572695	59.010366	41.260960
-0.415000	0.866899	-3.180214	97.472630	-0.106572	-0.189802	-0.033459	88.022138	0.618391	-2.522992	17.766748	0.845307	-21.916894	-34.933027	36.666751	8.279601	47.325258	33.364453	22.547236	4.855904	46.369949	31.773612	13.075371	-4.780177	59.925557	41.232868	8.935632	-8.548008	59.001242	41.253174
-0.405000	0.866899	-3.180214	97.472630	-0.106594	-0.189794	-0.033460	88.012363	0.622936	-2.523928	17.749285	0.824561	-21.910736	-34.921675	36.665691	8.267755	47.316601	33.354839	22.551476	4.857898	46.385866	31.776540	13.098468	-4.777965	59.922535	41.218462	8.934155	-8.535917	58.988101	41.242361
-0.395000	0.866899	-3.180214	97.472630	-0.106616	-0.189789	-0.033460	88.002363	0.626831	-2.527595	17.729429	0.808800	-21.904195	-34.909897	36.673339	8.253059	47.309521	33.346018	22.560472	4.859782	46.399743	31.781566	13.120151	-4.772047	59.924522	41.204817	8.941935	-8.531157	58.976111	41.230391
-0.385000	0.866899	-3.180214	97.472630	-0.106637	-0.189785	-0.033458	87.994312	0.630652	-2.534409	17.707302	0.801545	-21.899143	-34.899171	36.690722	8.234742	47.306595	33.338491	22.575626	4.861912	46.412478	31.789578	13.146737	-4.765647	59.931177	41.191363	8.954229	-8.526403	58.969974	41.218876
-0.375000	0.866899	-3.180214	97.472630	-0.106654	-0.189780	-0.033454	87.989316	0.634043	-2.543163	17.683544	0.803754	-21.897892	-34.891059	36.715992	8.212898	47.309028	33.332113	22.596133	4.863977	46.426353	31.800476	13.181057	-4.761213	59.939853	41.177110	8.966056	-8.515490	58.971235	41.208280
-0.365000	0.866899	-3.180214	97.472630	-0.106668	-0.189771	-0.033447	87.987979	0.636028	-2.551313	17.658974	0.812205	-21.902344	-34.886725	36.744916	8.188185	47.316143	33.326166	22.619054	4.864903	46.443428	31.812514	13.219893	-4.759270	59.946776	41.161211	8.973033	-8.495611	58.977551	41.197993
-0.355000	0.866899	-3.180214	97.472630	-0.106680	-0.189755	-0.033434	87.991159	0.635554	-2.555746	17.634189	0.820212	-21.913025	-34.886500	36.772562	8.161335	47.325851	33.319721	22.640137	4.863391	46.464247	31.822794	13.255141	-4.758538	59.949123	41.143504	8.971922	-8.467606	58.984023	41.187031
-0.345000	0.866899	-3.180214	97.472630	-0.106691	-0.189729	-0.033413	88.000201	0.632051	-2.553653	17.609109	0.820771	-21.928572	-34.889685	36.795395	8.132814	47.335444	33.311950	22.655124	4.858827	46.487620	31.828762	13.277869	-4.757038	59.946794	41.124801	8.961415	-8.434739	58.985392	41.174656
-0.335000	0.866899	-3.180214	97.472630	-0.106704	-0.189692	-0.033383	88.016436	0.625716	-2.543048	17.582561	0.810876	-21.946042	-34.894652	36.812551	8.102984	47.342079	33.302160	22.661189	4.852007	46.511360	31.829829	13.282937	-4.753440	59.942621	41.106802	8.943202	-8.401243	58.977634	41.160407
-0.325000	0.866899	-3.180214	97.472630	-0.106718	-0.189641	-0.033344	88.040216	0.617182	-2.522626	17.552121	0.795161	-21.961846	-34.899112	36.825376	8.072685	47.343114	33.289827	22.658310	4.845149	46.533431	31.828188	13.271898	-4.747861	59.940679	41.091682	8.922867	-8.371588	58.958345	41.143679
-0.315000	0.866899	-3.180214	97.472630	-0.106730	-0.189573	-0.033297	88.070227	0.606461	-2.490915	17.514522	0.787107	-21.972758	-34.900382	36.835099	8.043488	47.336971	33.275049	22.650308	4.840984	46.553017	31.828432	13.253165	-4.741701	59.943687	41.081492	8.910055	-8.350298	58.926560	41.123440
-0.305000	0.866899	-3.180214	97.472630	-0.106733	-0.189482	-0.033243	88.103886	0.591577	-2.445159	17.466849	0.806731	-21.976601	-34.895675	36.839422	8.016878	47.324634	33.259400	22.644786	4.841270	46.571302	31.836106	13.239671	-4.736618	59.951195	41.077546	8.917584	-8.341429	58.883036	41.098586
-0.295000	0.866899	-3.180214	97.472630	-0.106713	-0.189355	-0.033176	88.138985	0.567658	-2.380674	17.408603	0.874782	-21.972528	-34.882681	36.829656	7.992238	47.310725	33.246423	22.651157	4.845530	46.591720	31.855613	13.244978	-4.733131	59.959838	41.079842	8.959681	-8.347162	58.831098	41.068662
-0.285000	0.866899	-3.180214	97.472630	-0.106652	-0.189176	-0.033089	88.175520	0.527090	-2.291510	17.344199	1.005085	-21.961009	-34.860530	36.790287	7.964389	47.302668	33.240925	22.676977	4.850821	46.619298	31.888120	13.278949	-4.729629	59.965547	41.086603	9.049850	-8.365865	58.776844	41.034139
-0.275000	0.866899	-3.180214	97.472630	-0.106522	-0.188920	-0.032965	88.215851	0.460883	-2.172883	17.284670	1.198339	-21.943517	-34.830797	36.702173	7.922048	47.307612	33.246958	22.724529	4.852793	46.658808	31.930242	13.344330	-4.722458	59.966182	41.094065	9.198837	-8.390592	58.727306	40.995542
-0.265000	0.866899	-3.180214	97.472630	-0.106293	-0.188562	-0.032786	88.261787	0.361077	-2.025093	17.246940	1.441048	-21.922074	-34.797882	36.548847	7.848716	47.328768	33.265618	22.790322	4.847548	46.712037	31.974197	13.436043	-4.707346	59.962561	41.096787	9.412956	-8.408986	58.686585	40.951648
-0.255000	0.866899	-3.180214	97.472630	-0.105926	-0.188075	-0.032526	88.308906	0.224001	-1.857819	17.249678	1.711378	-21.899164	-34.768523	36.323598	7.726859	47.363862	33.294201	22.868852	4.833314	46.775422	32.009565	13.544882	-4.681711	59.956580	41.088586	9.693000	-8.405056	58.651618	40.897813
-0.245000	0.866899	-3.180214	97.472630	-0.105380	-0.187440	-0.032163	88.340403	0.053927	-1.692944	17.306611	1.989989	-21.878675	-34.750996	36.034405	7.544737	47.407466	33.327598	22.958923	4.811045	46.839607	32.026079	13.665441	-4.646704	59.946807	41.063808	10.034298	-8.362635	58.609725	40.825522
-0.235000	0.866899	-3.180214	97.472630	-0.104609	-0.186643	-0.031674	88.323635	-0.133911	-1.563786	17.420115	2.270703	-21.867728	-34.754881	35.704512	7.303342	47.456561	33.361342	23.068303	4.783637	46.891751	32.016472	13.804535	-4.607815	59.923687	41.018407	10.428595	-8.269801	58.539175	40.723651
-0.225000	0.866899	-3.180214	97.472630	-0.103561	-0.185685	-0.031039	88.211975	-0.312976	-1.509155	17.578542	2.565755	-21.877798	-34.791343	35.367715	7.019938	47.516429	33.394668	23.212494	4.754222	46.920013	31.978719	13.984118	-4.573502	59.867581	40.950537	10.867520	-8.123131	58.413263	40.581294
-0.215000	0.866899	-3.180214	97.472630	-0.102184	-0.184577	-0.030246	87.952659	-0.450021	-1.562236	17.759351	2.903606	-21.922828	-34.872595	35.058715	6.725536	47.603289	33.431937	23.406728	4.724547	46.918823	31.917464	14.234516	-4.552342	59.752531	40.861027	11.346042	-7.930372	58.208089	40.391693
-0.205000	0.866899	-3.180214	97.472630	-0.100429	-0.183342	-0.029292	87.498964	-0.515466	-1.736980	17.937521	3.321314	-22.013503	-35.009240	34.800722	6.456122	47.741427	33.481493	23.654994	4.694426	46.893448	31.844479	14.579481	-4.549878	59.556365	40.754165	11.863895	-7.710300	57.913006	40.156327
